<?xml version="1.0" encoding="utf-8"?>
<!-- Generator: Adobe Illustrator 24.2.0, SVG Export Plug-In . SVG Version: 6.00 Build 0)  -->
<svg version="1.1" id="Vrstva_1" xmlns="http://www.w3.org/2000/svg" xmlns:xlink="http://www.w3.org/1999/xlink" x="0px" y="0px"
	 viewBox="0 0 905 905" style="enable-background:new 0 0 905 905;" xml:space="preserve">
<style type="text/css">
	.st0{fill:#70727C;}
	.st1{fill:#5B5E66;}
	.st2{fill:#848591;}
	.st3{fill:#25212C;}
	.st4{fill:#DDA03D;}
	.st5{fill:#FEFEFE;}
</style>
<polygon class="st0" points="38.2,20 27,57 27,147 69,304.3 91,355 98,594 162,778 295.9,876 343,893.1 349.9,893.5 352.2,893.1 
	471.6,850.9 588.5,856.2 760.2,784.4 799.7,778.6 806.2,775.2 806.7,775.2 807.3,773.2 807.3,555 770.2,404.6 821.9,304.4 
	851,184.2 864.6,94 864.6,51.2 851,20 806.2,33 769.5,70.2 734.2,98.7 701.6,124 680.6,150.9 647.7,174.7 609.8,190.5 528.8,179.4 
	391.5,168.3 307.9,185.7 267,187.3 238.5,174.7 199.6,125.6 146.2,84.5 119.1,54.4 71.8,32.1 "/>
<path class="st0" d="M350.7,893.7c-30.7,2.8-61.3,0.7-91.4-5.6c-57.8-12.1-108.1-38.5-149.8-80.4c-31.4-31.7-54.2-69-69.4-110.9
	c-17.6-48.5-24.6-98.6-22.3-149.9c1.9-42.7,12.9-83.6,26.5-123.9c6.1-18.1,12.5-36.3,16.1-55c2.1-11.1,1.3-23.9-2.1-34.7
	c-19.2-61.5-33-124.3-41.8-188.1c-4.6-33.7-8.3-67.6-2.1-101.5c1.3-7.2,3.3-14.5,6-21.3C26.8,6.6,38.5,0.9,54.3,7.1
	c12.7,5,25.2,11.4,36.8,18.7c57.2,36.2,108.1,79.7,150.6,132.8c8.7,10.8,14.9,13,28.2,8.5c31.8-10.6,64-19.2,97.3-23.6
	c43-5.6,86-6.7,129.2-2.8c40.6,3.7,80.1,12.3,118.8,25.4c17.4,5.9,22,4,33.7-10.3C695.1,99.5,750,53.2,812.9,16.6
	c8.5-4.9,18.1-8.3,27.6-11c10-2.8,20,0.9,23.9,10.4c5,12.1,8.8,25,10.9,37.9c4.7,29.9,0.9,59.7-3,89.4
	c-7.6,57.6-18.1,114.7-36.5,169.7c-10.8,32.3-9.8,62,2.4,93.1c14.6,37.2,25.2,75.6,30.5,115.3c3.7,28,3.2,56.1,0.4,84.2
	c-4,39.9-13.1,78.7-30.5,114.9c-9.1,19-21.2,36.5-31.9,54.7c-2.3-3.2-4.3-6.9-7-9.7c-20.2-20.3-40.7-40.4-60.9-60.8
	c-8.8-8.8-17-18.2-25.8-27.1c-12.9-13.1-26.1-26.1-39.3-39c-0.7-0.6-2.4-0.2-3.6-0.2c-6.2-7-12.1-14.4-18.8-20.9
	c-17.7-17.1-39.8-25.7-63.8-27.9c-26.3-2.3-52.3,1.5-77.7,9c-6,1.7-9,4.9-8.7,11.5c0.2,3.8-1.2,7.7-1.8,11.5
	c-6.8-3.7-13.2-8.4-20.4-10.9c-7.3-2.5-15.4-3.6-23.1-3.9c-22.7-1-45.4-1.4-64.9,13.3c-1-3.3-3-6.7-2.9-10c0.1-6.2-2.2-9.7-8.2-10.9
	c-13.9-2.8-27.7-6.2-41.7-8.3c-21.6-3.2-43.1-3.1-63.9,5.2c-27.7,11-49,28.4-62.6,55.8c-12.3,24.7-14.9,49.8-7.8,75.6
	c5.4,19.7,13.7,38.4,32.7,49.7c1.6,0.9,1.6,4.5,2.3,6.8c8.7,7.2,17.5,14.3,26.2,21.5c-0.2,1.3-1,3.2-0.4,3.7c1.7,1.5,4.2,2,5.7,3.6
	c12.2,12.3,24.1,24.8,36.3,37C321,864.6,335.9,879.1,350.7,893.7z M38.2,69.3c1.2,12.1,1.7,25.1,3.9,37.9
	c5.7,33.5,11,67.1,18.5,100.2c6.1,27,15.2,53.3,22.6,79.9c4.9,17.4,16.1,22,31.4,12.1c4.5-2.9,8.7-6.2,13.1-9.2
	c25.9-17.8,47.6-39.6,64.3-66.4c11.1-17.7,10-34.7,0.4-51.9c-16.3-29.4-38.3-54.5-61.2-78.6c-11-11.6-22.9-22.4-35.4-32.4
	C84.2,51.6,71.8,43,59,35.5c-9.6-5.6-16.3-1.7-18.2,9.4C39.4,52.6,39.1,60.6,38.2,69.3z M851,74.3c-1.7-13.1-2.2-22.8-4.4-32.1
	c-2.4-10.3-6.9-12.6-16.1-7.2C817.8,42.3,805,50.1,794,59.7c-17.1,14.8-33.5,30.7-49,47.3c-20,21.4-38.1,44.5-51.4,70.9
	c-6.2,12.4-8.1,25.1-1,37.4c7.4,12.7,15.2,25.4,24.7,36.6c16.2,19.2,36.4,34.1,57.2,48.1c12.2,8.2,25.3,4.8,29.9-8.8
	c7.4-21.9,14.5-44,20.3-66.3c5.9-22.6,10.9-45.5,14.8-68.5C844.2,128,847.5,99.5,851,74.3z M533,535.2
	c31.1,37.3,70.6,52.7,116.4,39.2c57.6-17,77.8-60.9,73.2-119.4c4.4,3.7,8,6.7,11.5,9.7c-0.1-3.4-1-5.8-2.2-8
	c-2.2-3.8-4.5-7.4-6.8-11.1c-24.6-38.1-57.2-61.2-105-59.2c-41.4,1.7-79.2,28.6-93.2,67.9c-8.4,23.8-10.7,48-7.6,73
	C520.8,539.1,522.6,540.7,533,535.2z M356.1,534.4c3.4,1.6,6.2,4.1,8.6,3.7c1.8-0.3,4.1-4.3,4.1-6.7c0.3-17,1.4-34.2-0.5-51
	c-2.5-22.7-12.2-43.2-27.5-60.4c-25.9-29-59.6-36.8-96.8-32.5c-8.9,1-17.7,4.7-26,8.3c-26.1,11.4-43.7,32.1-58.8,55.3
	c-2.6,4-4.2,8.5-6.2,12.8c0.5,0.3,0.9,0.5,1.4,0.8c4.3-3.6,8.6-7.2,13.4-11.3c-10,60.7,21.3,101.5,61.3,118.1
	C267.4,587.2,325.3,577.9,356.1,534.4z"/>
<path class="st1" d="M350.7,893.7c-14.8-14.6-29.7-29.1-44.4-43.8c-12.2-12.2-24.1-24.7-36.3-37c-1.5-1.6-4.1-2.1-5.7-3.6
	c-0.5-0.5,0.2-2.4,0.4-3.7c1.9,0.6,3.9,1.1,5.8,1.9c22.3,9.7,45.4,10.4,68.8,5.5c19.3-4,36.1-13.7,52.5-24.2
	c22.3-14.2,38.7-33.8,51.4-57.2c10.5,17.2,21.4,33.4,37.1,45.7c29.9,23.6,61.9,41,101.8,38.2c25.8-1.8,47.9-11.3,66.5-29
	c1.4-1.3,1.7-3.9,2.5-5.9c4-4.1,8.3-8,12.1-12.3c22.3-25.1,28.4-54.8,23.9-87.3c-2.2-15.7-9.4-29.3-17.5-42.6c1.2,0.1,3-0.4,3.6,0.2
	c13.2,12.9,26.3,25.8,39.3,39c8.8,8.9,17,18.3,25.8,27.1c20.2,20.3,40.7,40.4,60.9,60.8c2.8,2.8,4.7,6.4,7,9.7
	c-25,35.6-57.2,63-95.4,83.4c-55.1,29.5-114.1,41-176.1,34.8c-26.1-2.6-52-7.3-77.7-12.2c-15-2.9-28.8,1.7-43,3.8
	C393.2,888.1,371.9,890.8,350.7,893.7z"/>
<path class="st2" d="M669.8,638.4c8,13.3,15.3,27,17.5,42.6c4.5,32.5-1.7,62.1-23.9,87.3c-3.8,4.3-8.1,8.2-12.1,12.3
	c-1.5,1-3,1.9-4.4,2.9c-23.8,17.2-50.9,26.5-79.3,21.2c-46.4-8.7-82.9-34.6-108.7-74.4c-3.2-5-4.5-11.8-4.8-17.9
	c-0.7-13.5-0.5-27.1,0-40.6c0.1-3.3,1.7-7.7,4.1-9.6c10.6-8.4,21.8-15.9,32.7-24c5.4-4,10.5-8.6,8.2-16.5c0.7-3.8,2-7.7,1.8-11.5
	c-0.3-6.6,2.7-9.8,8.7-11.5c25.4-7.4,51.4-11.3,77.7-9c24,2.1,46,10.7,63.8,27.9C657.8,624,663.6,631.4,669.8,638.4z M650.3,676.4
	c-2.4-1.8-5.5-5.9-9-6.4c-5.1-0.7-9.3,2.8-9.4,8.6c-0.1,5.4,3.2,8.5,8.4,8.7C646.1,687.6,649,684.3,650.3,676.4z M561.6,715.3
	c1.6-2.4,5.6-5.5,5.8-9c0.3-5-3.3-9.4-9-9.1c-5,0.2-8.2,3.4-8.3,9C550,712.4,553.7,714.5,561.6,715.3z M566.2,681.6
	c1.6-2.1,5.6-5,6.2-8.6c1-5.6-3.5-9.1-8.9-9.2c-5.3-0.1-8.4,3.6-8.5,8.9C554.9,678.1,558,681.1,566.2,681.6z M601.9,663
	c-6.5,0-8.9,3.6-9.4,8.7c-0.5,5.1,4.2,10.3,9,8.8c3.3-1,7.3-4.9,8.1-8.2C611,666.8,607,663.6,601.9,663z M632.5,733.6
	c5.5-0.4,8.2-3.2,8.2-8.8c0-5.8-3.5-8.7-8.5-8.8c-5.1-0.1-9,3.3-8.9,8.5C623.3,729.9,626.2,733.8,632.5,733.6z M597.5,719.8
	c5.4-0.4,8-3.4,7.8-9c-0.2-5.4-3.3-7.9-8.3-7.9c-5.4,0.1-8.5,2.9-8.5,8.6C588.5,717.5,592.2,719.4,597.5,719.8z"/>
<path class="st2" d="M238.5,784.1c-0.7-2.3-0.7-5.9-2.3-6.8c-18.9-11.4-27.3-30.1-32.7-49.7c-7-25.8-4.5-51,7.8-75.6
	c13.6-27.4,34.9-44.8,62.6-55.8c20.8-8.3,42.3-8.4,63.9-5.2c14,2,27.8,5.4,41.7,8.3c6,1.2,8.3,4.7,8.2,10.9c-0.1,3.3,1.9,6.6,2.9,10
	c-2.5,7.5-0.4,12.6,7.6,18.5c10.7,7.8,21.6,15.3,32.2,23.2c1.7,1.3,3.3,4,3.3,6c0.1,15.5-0.7,31.1-0.3,46.6
	c0.2,8.2-2.3,14.8-6.7,21.3c-14.5,21.7-34.6,37.3-56.6,50.6c-41.6,25.2-83.1,26-124.7-0.1C243.5,785,240.8,784.8,238.5,784.1z
	 M246.3,690.3c1.2,0,2.4,0,3.6,0c2.3-3.3,6-6.3,6.7-9.9c1-5.4-2.7-9.3-8.5-9.2c-5.6,0.1-9.6,3.7-8.8,9.1
	C239.9,684,243.9,687,246.3,690.3z M333.7,672.5c-0.1-5.6-3.8-9.4-8.9-8.5c-3.4,0.6-7.9,5.2-8.5,8.6c-0.9,5,2.9,8.9,8.9,8.8
	C330.8,681.2,333.6,678.4,333.7,672.5z M329.5,715c6.1-0.5,9.4-3.6,9.3-9.4c-0.2-5.3-3.6-8.6-8.9-8.5c-5.4,0.1-8.4,3.5-8.4,8.9
	C321.4,711.6,324.4,714.5,329.5,715z M258.9,734.8c2.2-3.4,5.9-6.6,6.4-10.2c0.7-5.2-3.3-8.7-8.5-8.5c-5.2,0.2-9.4,2.9-8.9,9.2
	C248.3,730.8,251.6,733.4,258.9,734.8z M289.1,661.7c-7.1,1.9-10.5,4.6-10.3,10.1c0.2,5.4,3.8,9.5,8.8,8.2c3.5-0.9,7.9-5.4,8.3-8.7
	C296.2,668.4,291.5,664.9,289.1,661.7z M290.8,702.9c-4.9,0.4-7.6,3.7-7.6,9c0,5.9,3.9,7.8,9.1,7.8c5.5,0,7.6-3.2,7.6-8.4
	C300,705.6,297.1,702.9,290.8,702.9z"/>
<path class="st2" d="M38.2,69.3c0.9-8.8,1.2-16.7,2.5-24.4c1.9-11.1,8.6-15.1,18.2-9.4c12.9,7.5,25.3,16.1,37,25.4
	c12.4,10,24.4,20.8,35.4,32.4c23,24.2,45,49.2,61.2,78.6c9.5,17.3,10.7,34.2-0.4,51.9c-16.8,26.8-38.4,48.6-64.3,66.4
	c-4.4,3-8.6,6.4-13.1,9.2c-15.3,9.9-26.5,5.3-31.4-12.1c-7.5-26.7-16.6-53-22.6-79.9c-7.5-33.1-12.8-66.7-18.5-100.2
	C39.9,94.4,39.4,81.4,38.2,69.3z"/>
<path class="st2" d="M851,74.3c-3.5,25.3-6.9,53.8-11.7,82c-3.9,23-8.9,45.9-14.8,68.5c-5.8,22.4-12.9,44.4-20.3,66.3
	c-4.6,13.6-17.7,17-29.9,8.8c-20.8-14-40.9-28.9-57.2-48.1c-9.5-11.2-17.3-23.9-24.7-36.6c-7.1-12.2-5.2-25,1-37.4
	c13.3-26.5,31.4-49.5,51.4-70.9c15.5-16.6,31.8-32.4,49-47.3c11.1-9.6,23.9-17.3,36.6-24.7c9.2-5.3,13.7-3.1,16.1,7.2
	C848.8,51.5,849.3,61.2,851,74.3z"/>
<path class="st3" d="M238.5,784.1c2.4,0.7,5,0.9,7.1,2.2c41.6,26.2,83.1,25.3,124.7,0.1c22-13.4,42-28.9,56.6-50.6
	c4.4-6.5,6.9-13.1,6.7-21.3c-0.4-15.5,0.4-31.1,0.3-46.6c0-2.1-1.6-4.8-3.3-6c-10.6-7.9-21.5-15.5-32.2-23.2
	c-8.1-5.8-10.1-11-7.6-18.5c19.5-14.6,42.3-14.3,64.9-13.3c7.8,0.3,15.8,1.4,23.1,3.9c7.2,2.5,13.6,7.2,20.4,10.9
	c2.2,8-2.8,12.5-8.2,16.5c-10.8,8.1-22.1,15.6-32.7,24c-2.4,1.9-4,6.3-4.1,9.6c-0.4,13.5-0.7,27.1,0,40.6c0.3,6.1,1.6,13,4.8,17.9
	c25.8,39.8,62.3,65.8,108.7,74.4c28.5,5.3,55.6-4.1,79.3-21.2c1.4-1,2.9-1.9,4.4-2.9c-0.8,2-1.1,4.5-2.5,5.9
	c-18.7,17.6-40.7,27.2-66.5,29c-40,2.8-71.9-14.6-101.8-38.2c-15.7-12.4-26.6-28.5-37.1-45.7c-12.7,23.4-29.1,43-51.4,57.2
	c-16.4,10.5-33.2,20.2-52.5,24.2c-23.4,4.9-46.5,4.2-68.8-5.5c-1.9-0.8-3.9-1.2-5.8-1.9C256,798.4,247.2,791.2,238.5,784.1z"/>
<path class="st3" d="M533,535.2c-10.4,5.5-12.2,3.9-13.6-7.8c-3.1-25-0.8-49.2,7.6-73c13.9-39.3,51.8-66.2,93.2-67.9
	c47.7-2,80.4,21,105,59.2c2.4,3.6,4.7,7.3,6.8,11.1c1.2,2.2,2.1,4.6,2.2,8c-3.6-3-7.1-6-11.5-9.7c4.5,58.4-15.6,102.4-73.2,119.4
	C603.6,587.9,564,572.5,533,535.2z M626.6,571.8c6.3-1.4,17.7-2.4,27.9-6.4c36.6-14.3,57.5-41.3,60.8-80.8
	c1.8-21.9,1.9-43.7-19.5-58c-0.4-0.3-0.7-0.7-1.1-1.1c-30.5-30.7-75.4-36.8-112.9-17.9c-31.8,16.1-46.7,44.3-51.7,78.6
	c-1.8,12.5-2.5,24.5,4.3,36.3C553.9,556.1,584.2,569.8,626.6,571.8z"/>
<path class="st3" d="M356.1,534.4c-30.8,43.5-88.8,52.8-127,37c-40-16.6-71.3-57.5-61.3-118.1c-4.9,4.1-9.2,7.7-13.4,11.3
	c-0.5-0.3-0.9-0.5-1.4-0.8c2-4.3,3.6-8.9,6.2-12.8c15.1-23.2,32.7-43.9,58.8-55.3c8.3-3.6,17.1-7.3,26-8.3
	c37.1-4.2,70.8,3.5,96.8,32.5c15.3,17.1,25,37.6,27.5,60.4c1.9,16.8,0.7,34,0.5,51c0,2.4-2.4,6.4-4.1,6.7
	C362.4,538.4,359.5,535.9,356.1,534.4z M171.9,467.5c0,32.6,8.7,61.2,34.9,82.5c40.3,32.8,95.3,26.2,130.1-5.1
	c13.9-12.5,25.4-27.9,22.7-48.7c-1.4-10.8-3-21.9-6.3-32.2c-17.6-54.4-70.2-77.6-121.4-62.3c-15.4,4.6-27.8,14-39,24.9
	c-6.8,6.6-13.4,13.9-18.1,22C171.9,453.8,172.7,461.2,171.9,467.5z"/>
<path class="st3" d="M650.3,676.4c-1.3,7.9-4.2,11.3-9.9,11c-5.2-0.2-8.5-3.3-8.4-8.7c0.1-5.9,4.3-9.3,9.4-8.6
	C644.8,670.5,647.8,674.5,650.3,676.4z"/>
<path class="st3" d="M561.6,715.3c-8-0.8-11.7-2.9-11.5-9.2c0.1-5.6,3.3-8.7,8.3-9c5.7-0.2,9.4,4.2,9,9.1
	C567.2,709.7,563.3,712.9,561.6,715.3z"/>
<path class="st3" d="M566.2,681.6c-8.1-0.5-11.3-3.4-11.2-8.9c0.1-5.3,3.2-9,8.5-8.9c5.4,0.1,9.9,3.6,8.9,9.2
	C571.8,676.5,567.8,679.5,566.2,681.6z"/>
<path class="st3" d="M601.9,663c5,0.5,9,3.8,7.7,9.3c-0.8,3.3-4.7,7.1-8.1,8.2c-4.8,1.5-9.5-3.7-9-8.8
	C593,666.6,595.4,663.1,601.9,663z"/>
<path class="st3" d="M632.5,733.6c-6.3,0.2-9.1-3.7-9.2-9c0-5.3,3.8-8.6,8.9-8.5c5,0.1,8.5,3,8.5,8.8
	C640.7,730.4,637.9,733.2,632.5,733.6z"/>
<path class="st3" d="M597.5,719.8c-5.3-0.4-9-2.3-9-8.3c0-5.7,3.1-8.5,8.5-8.6c5.1-0.1,8.1,2.4,8.3,7.9
	C605.5,716.4,602.9,719.4,597.5,719.8z"/>
<path class="st3" d="M246.3,690.3c-2.4-3.3-6.4-6.3-6.9-9.9c-0.9-5.4,3.1-9.1,8.8-9.1c5.8-0.1,9.4,3.8,8.5,9.2
	c-0.6,3.6-4.3,6.6-6.7,9.9C248.7,690.3,247.5,690.3,246.3,690.3z"/>
<path class="st3" d="M333.7,672.5c-0.1,5.9-2.9,8.7-8.5,8.9c-6,0.1-9.8-3.7-8.9-8.8c0.6-3.4,5.1-8,8.5-8.6
	C329.9,663,333.6,666.9,333.7,672.5z"/>
<path class="st3" d="M329.5,715c-5.1-0.5-8.1-3.4-8.1-8.9c0-5.4,3-8.8,8.4-8.9c5.4-0.1,8.8,3.1,8.9,8.5
	C339,711.4,335.6,714.5,329.5,715z"/>
<path class="st3" d="M258.9,734.8c-7.3-1.4-10.6-4-11-9.5c-0.5-6.3,3.6-9,8.9-9.2c5.2-0.2,9.3,3.3,8.5,8.5
	C264.7,728.2,261.1,731.4,258.9,734.8z"/>
<path class="st3" d="M289.1,661.7c2.4,3.2,7.1,6.8,6.7,9.7c-0.4,3.3-4.8,7.8-8.3,8.7c-5,1.3-8.6-2.8-8.8-8.2
	C278.6,666.2,281.9,663.6,289.1,661.7z"/>
<path class="st3" d="M290.8,702.9c6.3,0,9.2,2.7,9.2,8.4c0,5.2-2.1,8.3-7.6,8.4c-5.2,0-9.1-1.9-9.1-7.8
	C283.2,706.5,285.9,703.3,290.8,702.9z"/>
<path class="st4" d="M626.6,571.8c-42.3-2.1-72.7-15.7-92.2-49.3c-6.8-11.8-6.2-23.8-4.3-36.3c5-34.3,19.8-62.5,51.7-78.6
	c37.5-19,82.4-12.8,112.9,17.9c0.4,0.4,0.7,0.8,1.1,1.1c21.5,14.3,21.4,36.1,19.5,58c-3.3,39.5-24.2,66.5-60.8,80.8
	C644.2,569.4,632.9,570.4,626.6,571.8z M621.6,543.4c32.5,0.1,59.1-26.5,59-59c0-32.2-26.8-58.2-59.7-58.2
	c-31.9,0.1-58,26.1-58.3,58.1C562.4,516.4,589.1,543.3,621.6,543.4z"/>
<path class="st4" d="M171.9,467.5c0.8-6.4-0.1-13.7,2.9-18.9c4.6-8.2,11.2-15.5,18.1-22c11.2-10.9,23.6-20.3,39-24.9
	c51.2-15.3,103.8,7.9,121.4,62.3c3.3,10.3,4.9,21.4,6.3,32.2c2.6,20.8-8.8,36.2-22.7,48.7c-34.7,31.3-89.8,37.9-130.1,5.1
	C180.6,528.7,171.9,500.1,171.9,467.5z M325.7,485.5c0.2-33.1-25.3-59.1-58.2-59.4c-32.7-0.3-59.2,25.7-59.3,58.4
	c-0.2,31.5,26.3,58.6,57.6,58.8C298.9,543.6,325.6,517.8,325.7,485.5z"/>
<path class="st3" d="M621.6,543.4c-32.5-0.1-59.2-26.9-58.9-59.2c0.3-31.9,26.4-58,58.3-58.1c32.9-0.1,59.6,26,59.7,58.2
	C680.6,516.8,654,543.5,621.6,543.4z M647.8,487.9c8.3-0.2,15-7.3,14.6-15.4c-0.4-7.8-7.4-14.4-15.2-14.2
	c-7.8,0.3-14.6,7.5-14.2,15.1C633.4,481.4,640.2,488,647.8,487.9z"/>
<path class="st3" d="M325.7,485.5c-0.2,32.3-26.9,58.1-60,57.8c-31.3-0.2-57.8-27.3-57.6-58.8c0.2-32.7,26.6-58.7,59.3-58.4
	C300.4,426.4,325.9,452.4,325.7,485.5z M293.2,487.9c7.8,0,14.6-6.7,14.8-14.6c0.2-8-7-15.3-15-15.1c-7.4,0.1-14.5,7.6-14.3,15.1
	C278.7,481.2,285.5,487.9,293.2,487.9z"/>
<path class="st5" d="M647.8,487.9c-7.6,0.2-14.4-6.5-14.8-14.5c-0.3-7.6,6.4-14.8,14.2-15.1c7.7-0.3,14.8,6.3,15.2,14.2
	C662.8,480.6,656.1,487.7,647.8,487.9z"/>
<path class="st5" d="M293.2,487.9c-7.7,0-14.5-6.7-14.6-14.6c-0.2-7.5,6.9-14.9,14.3-15.1c8-0.1,15.2,7.1,15,15.1
	C307.8,481.2,301,487.9,293.2,487.9z"/>
</svg>
