<svg id="Capa_1" enable-background="new 0 0 497 497" height="512" viewBox="0 0 497 497" width="512" xmlns="http://www.w3.org/2000/svg"><g><g><path d="m91.181 356.338c-26.892-26.889-41.7-62.641-41.7-100.668 0-38.03 14.812-73.783 41.7-100.671 55.511-55.511 145.835-55.508 201.339.003l-67.112 67.112c-18.504-18.494-48.605-18.5-67.115 0-8.963 8.963-13.9 20.879-13.9 33.556 0 12.674 4.937 24.593 13.9 33.556z" fill="#ff8e9e"/><g><path d="m415.626 0h-58.231c-8.807 0-15.947 7.14-15.947 15.946v20.294c0 8.807 7.139 15.946 15.947 15.946h1.037l-18.994 18.994c-22.908-15.755-50.631-24.992-80.475-24.992l-29.26 10.982v249.558l29.259 24.198h.001c39.252.002 74.843-15.966 100.624-41.747 25.779-25.779 41.747-61.37 41.745-100.622 0-29.844-9.237-57.567-24.992-80.476l18.994-18.994v1.037c0 8.807 7.139 15.947 15.946 15.947h20.294c8.807 0 15.947-7.14 15.947-15.947v-58.231c-.002-17.614-14.281-31.893-31.895-31.893z" fill="#7ce3ff"/><path d="m258.963 46.188c-78.502.002-142.371 63.871-142.368 142.369l-.002.002c.004 78.499 63.868 142.364 142.37 142.367v-189.824c-26.21-26.21-26.21-68.704 0-94.914z" fill="#2ed0fc"/></g><g><path d="m228.091 418.72h-10.147l-.001-23.149v-64.413l-26.093-28.056c-12.153 0-24.305-4.626-33.558-13.875-18.531-18.531-48.581-18.531-67.112 0-18.534 18.532-18.534 48.581 0 67.112 21.102 21.104 47.236 34.175 74.576 39.232v23.15h-10.147c-8.807 0-15.947 7.14-15.947 15.947v20.293c0 8.807 7.14 15.947 15.947 15.947h10.147v10.147c0 8.807 7.139 15.946 15.947 15.946h20.293c8.807 0 15.947-7.14 15.947-15.946v-10.147h10.147c8.807 0 15.947-7.14 15.947-15.947v-20.293c.001-8.809-7.139-15.948-15.946-15.948z" fill="#ff8e9e"/><path d="m292.521 154.999c-9.269-9.265-21.414-13.897-33.559-13.897-12.146 0-24.29 4.634-33.556 13.9-18.531 18.535-18.528 48.581.003 67.115 8.963 8.96 13.9 20.876 13.9 33.553 0 12.673-4.937 24.593-13.9 33.556-9.254 9.251-21.406 13.876-33.558 13.875-12.243 14.773-16.442 34.62-11.231 53.085 5.211 18.466 19.165 33.189 37.324 39.384 27.339-5.058 53.474-18.128 74.576-39.232 26.892-26.889 41.7-62.642 41.7-100.668.001-38.03-14.811-73.783-41.699-100.671z" fill="#ffb5c0"/></g></g><g fill="#ff8e9e"><path d="m179.961 106.124c-16.016 0-29 10.297-29 23s12.984 23 29 23 29-10.298 29-23c0-12.703-12.983-23-29-23z"/><path d="m337.961 106.124c-16.016 0-29 10.297-29 23s12.984 23 29 23 29-10.298 29-23c0-12.703-12.983-23-29-23z"/></g><path d="m220.39 337.082c-6.523-9.651-16.894-1.825-28.539-1.825-11.646 0-22.017-7.826-28.54 1.825-6.617 9.79 8.202 24.97 28.54 24.97 20.337 0 35.156-15.18 28.539-24.97z" fill="#4c5699"/><g fill="#313d40"><g><path d="m147.286 324.418c-3.125-2.722-7.861-2.396-10.582.727-3.868 4.439-10.739 4.435-14.604 0-2.723-3.122-7.46-3.447-10.582-.727-3.122 2.722-3.448 7.459-.727 10.582 9.846 11.299 27.384 11.288 37.221 0 2.722-3.123 2.396-7.86-.726-10.582z"/><path d="m272.184 324.418c-3.125-2.722-7.861-2.396-10.582.727-3.868 4.439-10.739 4.435-14.604 0-2.723-3.122-7.46-3.447-10.582-.727-3.122 2.722-3.448 7.459-.727 10.582 9.846 11.299 27.384 11.288 37.221 0 2.722-3.123 2.396-7.86-.726-10.582z"/></g><g><path d="m196.868 88c-4.143 0-7.5 3.357-7.5 7.5v12c0 4.143 3.357 7.5 7.5 7.5s7.5-3.357 7.5-7.5v-12c0-4.143-3.357-7.5-7.5-7.5z"/><path d="m321.868 88c-4.143 0-7.5 3.357-7.5 7.5v12c0 4.143 3.357 7.5 7.5 7.5s7.5-3.357 7.5-7.5v-12c0-4.143-3.357-7.5-7.5-7.5z"/><path d="m279.761 97.47c-3.122-2.722-7.86-2.396-10.582.727-2.729 3.132-6.67 4.929-10.811 4.929s-8.08-1.796-10.81-4.928c-2.721-3.124-7.459-3.448-10.581-.728-3.123 2.721-3.449 7.459-.728 10.581 5.578 6.402 13.641 10.074 22.118 10.074s16.539-3.672 22.119-10.073c2.722-3.122 2.398-7.861-.725-10.582z"/></g></g></g></svg>