<?xml version="1.0" encoding="utf-8"?>
<!-- Generator: Adobe Illustrator 24.2.0, SVG Export Plug-In . SVG Version: 6.00 Build 0)  -->
<svg version="1.1" id="Vrstva_1" xmlns="http://www.w3.org/2000/svg" xmlns:xlink="http://www.w3.org/1999/xlink" x="0px" y="0px"
	 viewBox="0 0 905 905" style="enable-background:new 0 0 905 905;" xml:space="preserve">
<style type="text/css">
	.st0{fill:#4A5959;}
	.st1{fill:#EAE1B9;}
	.st2{fill:#404A4A;}
	.st3{fill:#FE7FA6;}
	.st4{fill:#FDA4B0;}
</style>
<polygon class="st0" points="320.6,0 606.4,0 600.1,742.2 368.1,769.3 "/>
<path class="st1" d="M772.8,679.6c5.5,13.2,10.2,26.9,16.9,39.5c5.2,9.8,20.5,12.4,31.7,7.4c11.3-5.1,17.8-17.1,13.2-30.3
	c-5.5-15.9-13.7-30.8-20.7-46.2C800.2,659.8,786.5,669.7,772.8,679.6z"/>
<polygon class="st0" points="448.2,79.7 448.1,742.2 301.7,738 207.8,619.9 81.3,595.1 84.9,465.3 145.1,336.1 217.9,102.9 "/>
<polygon class="st2" points="446.2,91.9 446.2,486.9 446.2,752.3 549,758.1 631.5,709 670.5,619.3 812.4,591.9 807.2,452.5 
	743.9,335 699.6,204.7 673.2,91.9 "/>
<path class="st2" d="M715.6,19.5c7.1,11.7,8.1,24.1,10.1,36.8c18.1,115.2,53.7,225,103.6,330.2c10.8,22.8,23.9,45,31.3,68.9
	c21.4,69.3,5.8,131.8-40.6,187c-2,2.4-4,4.9-6,7.4c-10.7,12.8-23.5,23.6-41.1,29.7c-11.3,2.9-22.5,7.6-33.9,8.4
	c-12,0.8-24.6-1-36.4-3.8c-14.6-3.5-22.7,0.3-24.8,14.9c-7.4,52.1-32.8,91.9-79.8,116.9c-15.7,6.2-31.8,10.2-48.8,9.6
	c-38.5-1.8-64.9-22.3-86.2-52.6c-4.4-6.2-9.1-10.9-16.8-12c0-96.4,0-192.7-0.1-289.1c61.1-0.6,103.7-43.7,114.1-91.8
	c1.6-7.3,2.6-14.8,2.7-22.2c0.3-16.8,7.3-28.3,23.2-34.9c35.4-14.7,56.7-41.2,64.1-78.9c10.9-54.9-28.6-112.3-84-120.6
	c-15.8-2.4-32.2-1.7-48.3-2c-24.2-0.3-47.5-0.2-71.7-0.3c0-40.4,0-80.7,0-121.1c79.8,0,158.5,0,238.3,0
	C703.4,1.4,709.3,9.1,715.6,19.5z M511.7,688.1c26,27.1,58.9,22.2,76.8-11c21-38.9,12.5-102.5-17.9-134.6
	c-27-28.6-61-23.7-78.9,11.4c-8,15.8-10.9,32.7-10.7,58.5C481.7,635.5,489.2,664.7,511.7,688.1z M739.8,417.9
	c-5.2-5.7-11.3-10.9-17.8-15c-29.2-18.6-59.3-7.8-68.6,25.6c-10.6,38-0.4,72.4,21.5,103.9c8.4,12,19,21.7,32.4,28
	c24.1,11.3,47.7,3.3,58.1-21.3c4.7-11.2,6.3-23.7,7.9-29.9C771.8,470.8,761.6,442,739.8,417.9z"/>
<path class="st1" d="M81.7,648c-7.9,13.4-15.9,26.7-23.7,40.1c-7.7,13.3-4.6,30.1,6.8,36.8c13.4,7.9,28.5,4.1,37.4-9.7
	c7.3-11.4,14.4-22.9,21.5-34.3C109.7,670,95.7,659,81.7,648z"/>
<path class="st0" d="M448.2,121.8c-38.7,0.3-76.5-1.7-114.9,1.5c-47.6,4-82.7,41.7-89.9,90.4c-6.3,43.5,19.1,89.2,61.4,107.2
	c18.4,7.8,26.1,19.7,26.9,39.6c2.7,62.2,56.3,113,116.4,110.7l-0.1,0.6c0,96.4,0,192.7,0.1,289.1c-4.6,3.1-10.6,5.2-13.7,9.4
	c-23.3,32.2-53,51.2-92.8,55.1c-17.5,0.3-34.3-3.4-50.3-10.3c-45.3-24.8-68.1-64.7-76.5-114.2c-2.7-16.2-10.8-21.1-26.4-15.4
	c-22.3,8.2-43.7,4.3-64.7-4.5c-18.8-8.9-32.4-19.9-42-33c-20.3-25.3-34.8-53.5-41.7-85.4c-10.4-48.1-4.2-94.1,18.3-137.8
	c45.3-87.7,80.5-179.2,103.6-275.2c8.1-33.6,14.2-67.7,20.2-101.7c3.8-21.7,15.1-46.7,37.6-47.8c0.6,0-1.3,0.1,0.6,0
	c76.3,0,151.6,0,227.9,0c0,40.4,0,80.7,0,121.1L448.2,121.8z M393.5,550.7c-17.6-30.9-48.9-35.4-74.2-10.3
	c-20.4,20.3-28.9,46.2-31.3,74.2c-1.8,21,0.7,41.5,10.5,60.6c17.9,34.8,53,39.5,79,10.2c20.5-23.1,28.1-51.2,28.7-81.5
	C406.3,585.2,402.9,567.2,393.5,550.7z M238.2,418.1c-10.2-22.6-32.4-30.2-55.1-20.3c-22.9,10.1-37.2,28.7-47.4,50.7
	c-11.9,25.8-17.1,52.7-9.1,80.8c9.9,35,40.6,46.1,70.9,25.9c28.8-19.2,48.9-60.2,48.9-99.5l0,0C243.1,443.3,243.5,429.6,238.2,418.1
	z"/>
<path class="st1" d="M549.1,825.6c1.8,13.3,3,26.8,5.7,39.9c1.1,5.2,5.3,9.9,8.4,14.6c1.9,2.8,4.4,5.1,6.7,7.6c6.9,0,13.9,0,20.8,0
	c1.3-1.5,2.2-3.4,3.8-4.3c8.7-5.5,12.6-13.6,11.7-23.4c-1.2-13.4-3.5-26.7-5.5-40c-0.2-1.5-1.9-2.7-2.9-4.1
	C582.2,822.1,566.1,826.1,549.1,825.6z"/>
<path class="st1" d="M322.5,887.7c14.9-11.9,17.2-28.5,17.7-46c0.2-5.4,0.9-10.8,1.4-16.2c-17.5,0.3-34.3-3.4-50.3-10.3
	c-1.7,13.6-3.6,27.2-5,40.9c-1,9.7,1.8,18.1,9.3,24.7c2.3,2,4.1,4.6,6.1,6.9C308.7,887.7,315.6,887.7,322.5,887.7z"/>
<path class="st3" d="M446.1,471.3c61.1-0.6,103.7-43.5,114.1-91.5c1.6-7.2,2.6-14.7,2.7-22.1c0.3-16.7,7.3-28.2,23.2-34.8
	c35.4-14.7,56.7-41.1,64.1-78.6c10.9-54.7-28.6-111.9-84-120.2c-15.8-2.4-32.2-1.7-48.3-1.9c-24.2-0.3-47.5-0.2-71.7-0.3
	c0,0,0.1,0.7,0.1,0.7c0,116,0,232.1,0,348.1L446.1,471.3z"/>
<path class="st3" d="M481,612.3c0.7,23.2,8.3,52.4,30.7,75.7c26,27.1,58.9,22.2,76.8-11c21-38.9,12.5-102.5-17.9-134.6
	c-27-28.6-61-23.7-78.9,11.4C483.6,569.6,480.8,586.5,481,612.3z"/>
<path class="st3" d="M773.3,509.2c-1.5-38.4-11.8-67.2-33.6-91.3c-5.2-5.7-11.3-10.9-17.8-15c-29.2-18.6-59.3-7.8-68.6,25.6
	c-10.6,38-0.4,72.4,21.5,103.9c8.4,12,19,21.7,32.4,28c24.1,11.3,47.7,3.3,58.1-21.3C770.2,528,771.7,515.5,773.3,509.2z"/>
<path class="st4" d="M448.2,471.2c0-116.5,0-232.9,0-349.4c-38.7,0.3-76.5-1.7-114.9,1.5c-47.6,4-82.7,41.7-89.9,90.4
	c-6.3,43.5,19.1,89.2,61.4,107.2c18.4,7.8,26.1,19.7,26.9,39.6C334.4,422.6,388.1,473.5,448.2,471.2z"/>
<path class="st4" d="M406.1,604c0.2-18.8-3.2-36.8-12.6-53.3c-17.6-30.9-48.9-35.4-74.2-10.3c-20.4,20.3-28.9,46.2-31.3,74.2
	c-1.8,21,0.7,41.5,10.5,60.6c17.9,34.8,53,39.5,79,10.2C398,662.4,405.5,634.3,406.1,604z"/>
<path class="st4" d="M246.5,455.6c-0.6-12.9-3.1-26-8.3-37.6c-10.2-22.6-32.4-30.2-55.1-20.3c-22.9,10.1-37.2,28.7-47.4,50.7
	c-11.9,25.8-17.1,52.7-9.1,80.8c9.9,35,40.6,46.1,70.9,25.9C226.4,536,246.5,495,246.5,455.6L246.5,455.6z"/>
</svg>
