<?xml version="1.0" encoding="utf-8"?>
<!-- Generator: Adobe Illustrator 24.2.0, SVG Export Plug-In . SVG Version: 6.00 Build 0)  -->
<svg version="1.1" id="Vrstva_1" xmlns="http://www.w3.org/2000/svg" xmlns:xlink="http://www.w3.org/1999/xlink" x="0px" y="0px"
	 viewBox="0 0 905 874.3" style="enable-background:new 0 0 905 874.3;" xml:space="preserve">
<style type="text/css">
	.st0{fill:#F2929B;}
</style>
<path class="st0" d="M452.9,874c-42,0-84-1.1-126,0.3c-60.5,1.9-117.5-38.2-142.3-95c-18.7-42.8-17.4-87-9.5-131.5
	c11.2-62.3,38.2-117.3,82.3-162.7c50.2-51.6,111-81.9,184-85.2c73.3-3.3,137.2,20.3,191.2,69c75.2,67.8,108.8,153.8,104.3,254.3
	c-3.3,72.9-58.7,136-128.3,149.1c-6.9,1.3-14,1.6-21,1.7C542.8,874.1,497.9,874,452.9,874z"/>
<path class="st0" d="M709.9,141.4c-0.1,43.1-12.3,81.6-43.9,112.4c-37.9,37-95.1,37.2-132.1-0.5c-46.5-47.5-53.6-104.3-35.5-165.7
	c7.1-24.1,20.4-45,39.8-61.2c46.2-38.6,108.2-28.8,143.9,22.9C701.3,76.8,710.2,107.8,709.9,141.4z"/>
<path class="st0" d="M197.7,142c0.3-40.2,11.4-76.7,39-106.6c42-45.4,107.6-43.5,147.6,6.1c43.9,54.3,45.7,139.7,4.2,195.7
	c-15.7,21.3-36,37.2-62.9,42.3c-39.8,7.5-70.9-8.5-95.4-38.3C206.9,212.7,197.7,178.7,197.7,142z"/>
<path class="st0" d="M4.2,344.6c-1-27.3,6.8-51.6,24.1-72.8c23.7-29.1,66.5-36.8,103.6-18.6c61.3,30,93.2,113.2,67.5,176.3
	c-18.9,46.4-69.7,66.5-115.3,45.4c-35.3-16.4-57.2-44.8-70.8-80.4C7.3,378.6,5.4,360.6,4.2,344.6L4.2,344.6z"/>
<path class="st0" d="M903.1,345c-1.9,52.4-22.7,94.6-67.5,123.3c-34.1,21.9-73.6,19.8-103.9-5.9c-20.6-17.4-30.5-41.2-32-67.5
	c-3.3-58.3,18.5-105.7,68.2-137c58.9-37.1,127.5-3,135.1,72.1C903.5,335,903.1,340.1,903.1,345z"/>
</svg>
